<?xml version="1.0" encoding="UTF-8"?>
<svg xmlns="http://www.w3.org/2000/svg" xmlns:xlink="http://www.w3.org/1999/xlink" width="138.67pt" height="138.67pt" viewBox="0 0 138.67 138.67" version="1.1">
<g id="surface1">
<path style=" stroke:none;fill-rule:nonzero;fill:rgb(100%,100%,100%);fill-opacity:1;" d="M 138.664063 138.671875 L 0 138.671875 L 0 0.00390625 L 138.664063 0.00390625 L 138.664063 138.671875 "/>
<path style=" stroke:none;fill-rule:nonzero;fill:rgb(74.899292%,84.298706%,18.798828%);fill-opacity:1;" d="M 57.179688 60.570313 L 60.136719 60.570313 L 60.136719 78.105469 L 57.179688 78.105469 L 57.179688 60.570313 "/>
<path style=" stroke:none;fill-rule:nonzero;fill:rgb(92.89856%,10.998535%,14.099121%);fill-opacity:1;" d="M 92.453125 60.570313 L 95.410156 60.570313 L 95.410156 78.105469 L 92.453125 78.105469 L 92.453125 60.570313 "/>
<path style=" stroke:none;fill-rule:nonzero;fill:rgb(92.89856%,10.998535%,14.099121%);fill-opacity:1;" d="M 100.804688 67.410156 C 100.804688 61.632813 104.898438 60.296875 110.503906 60.296875 L 114.730469 60.296875 C 120.339844 60.296875 124.425781 61.632813 124.425781 67.410156 L 124.425781 71.265625 C 124.425781 77.039063 120.339844 78.378906 114.730469 78.378906 L 110.503906 78.378906 C 104.898438 78.378906 100.804688 77.039063 100.804688 71.265625 Z M 121.46875 67.585938 C 121.46875 63.492188 119.066406 62.703125 115.625 62.703125 L 109.609375 62.703125 C 106.171875 62.703125 103.761719 63.492188 103.761719 67.585938 L 103.761719 71.089844 C 103.761719 75.183594 106.171875 75.972656 109.609375 75.972656 L 115.625 75.972656 C 119.066406 75.972656 121.46875 75.183594 121.46875 71.089844 L 121.46875 67.585938 "/>
<path style=" stroke:none;fill-rule:nonzero;fill:rgb(74.899292%,84.298706%,18.798828%);fill-opacity:1;" d="M 79.183594 60.296875 L 73.410156 60.296875 C 67.871094 60.296875 66.121094 63.078125 66.121094 66.246094 L 66.121094 78.105469 L 69.078125 78.105469 L 69.078125 66.96875 C 69.078125 64.386719 69.796875 62.703125 75.539063 62.703125 L 77.050781 62.703125 C 82.789063 62.703125 83.511719 64.386719 83.511719 66.96875 L 83.511719 78.105469 L 86.472656 78.105469 L 86.472656 66.246094 C 86.472656 63.078125 84.71875 60.296875 79.183594 60.296875 "/>
<path style=" stroke:none;fill-rule:nonzero;fill:rgb(92.89856%,10.998535%,14.099121%);fill-opacity:1;" d="M 43.53125 60.296875 L 39.957031 60.296875 C 36.929688 60.296875 34.558594 61.15625 33.460938 63.527344 C 32.53125 61.363281 30.464844 60.296875 27.785156 60.296875 L 23.007813 60.296875 C 22.933594 60.296875 21.90625 60.296875 21.90625 60.296875 C 17.160156 60.296875 14.238281 62.359375 14.238281 66.34375 L 14.238281 78.105469 L 17.195313 78.105469 L 17.195313 66.6875 C 17.195313 64.660156 18.089844 62.703125 22.796875 62.703125 L 25.753906 62.703125 C 30.441406 62.703125 31.519531 64.0625 31.53125 67.421875 L 31.53125 78.105469 L 34.492188 78.105469 L 34.492188 67.421875 C 34.546875 64.75 35.398438 62.703125 40.539063 62.703125 L 42.636719 62.703125 C 47.347656 62.703125 48.242188 64.660156 48.242188 66.6875 L 48.242188 78.105469 L 51.195313 78.105469 L 51.195313 66.34375 C 51.195313 62.359375 48.277344 60.296875 43.53125 60.296875 "/>
</g>
</svg>
